<?xml version="1.0" encoding="utf-8"?>
<!-- Generator: Adobe Illustrator 26.0.2, SVG Export Plug-In . SVG Version: 6.00 Build 0)  -->
<svg version="1.1" id="Layer_1" xmlns="http://www.w3.org/2000/svg" xmlns:xlink="http://www.w3.org/1999/xlink" x="0px" y="0px"
	 viewBox="0 0 39.9 39.8" style="enable-background:new 0 0 39.9 39.8;" xml:space="preserve">
<style type="text/css">
	.st0{fill:#ED1D24;}
	.st1{fill:#FFFFFF;}
</style>
<g>
	<g>
		<g>
			<path class="st0" d="M0,39.8h39.9V0H0V39.8z"/>
			<path class="st1" d="M29.4,5.4H32V18h-2.6V5.4z"/>
			<g>
				<path class="st1" d="M13.4,13.8c0,2.4-1.8,4.2-4.2,4.2c-2.3,0-4.2-1.8-4.2-4.2V5.4h2.5v8.4c0,1,0.8,1.7,1.7,1.7
					c0.9,0,1.7-0.8,1.7-1.7V5.4h2.5V13.8z"/>
			</g>
			<g>
				<path class="st1" d="M25.2,34.4h-8.4V21.8h2.5v10h5.9V34.4z"/>
			</g>
			<g>
				<path class="st1" d="M25.2,18h-2.6l-3.3-7.2V18h-2.5V5.4h2.5l3.3,7.2V5.4h2.6V18z"/>
			</g>
			<g>
				<path class="st1" d="M9.3,21.8c-2.3,0-4.2,1.9-4.2,4.2v4.3c0,2.2,1.8,4.2,4.2,4.2c0.3,0,0.6,0,0.8-0.1L11,37h2.5l-1.2-3.8
					c0.7-0.8,1.2-1.8,1.2-2.9V26C13.4,23.7,11.6,21.8,9.3,21.8 M11,30.3c0,0.8-0.8,1.6-1.7,1.6c-0.9,0-1.7-0.8-1.7-1.6V26
					c0-0.9,0.8-1.7,1.7-1.7c0.9,0,1.7,0.8,1.7,1.7V30.3z"/>
			</g>
			<g>
				<path class="st1" d="M30.7,21.8c-2.4,0-4.2,1.9-4.2,4.2v4.3c0,2.2,1.8,4.2,4.2,4.2c2.3,0,4.2-1.9,4.2-4.2V26
					C34.8,23.7,33,21.8,30.7,21.8 M32.4,30.3c0,0.8-0.8,1.6-1.7,1.6c-0.9,0-1.7-0.8-1.7-1.6V26c0-0.9,0.8-1.7,1.7-1.7
					c0.9,0,1.7,0.8,1.7,1.7V30.3L32.4,30.3z"/>
			</g>
		</g>
	</g>
</g>
</svg>
