<?xml version="1.0" encoding="utf-8"?>
<!-- Generator: Adobe Illustrator 19.2.1, SVG Export Plug-In . SVG Version: 6.00 Build 0)  -->
<svg version="1.1" id="layer" xmlns="http://www.w3.org/2000/svg" xmlns:xlink="http://www.w3.org/1999/xlink" x="0px" y="0px"
	 viewBox="0 0 652 652" style="enable-background:new 0 0 652 652;" xml:space="preserve">
<path d="M620.4,385.4c0.2,1.5-0.2,3.2-0.3,4.8c-1.3,8-2.8,15.9-7.1,22.8c-2.6,4.6-5.8,8.7-9.7,12.5c-2.5,2.6-5.4,4.8-8.4,6.5
	c-6.3,3.5-13.3,5.7-20.5,7.1c-6.1,0.9-12.4,1-18.5,0.3c-4.5-0.7-8.8-1.7-13-3.1c-7.9-2.6-15.3-6.4-22.3-11c-1.5-1-2.8-2.5-3-4.3
	l-0.1-5.1l-0.7-19.7l-0.6-16c0.2-0.8,0.5-1.8,1.3-2.1c0.8-0.2,1.7-0.4,2.4,0.1c1.3,0.6,1.5,2,1.9,3.2c2.6,8.7,4.8,17.5,8.7,25.6
	c4.3,8.9,12.1,17.7,20.9,21.6c5.4,2.8,11.5,4.2,17.9,4.4c6.5-0.3,12.8-1.6,18.2-4.9c6.7-4.1,13.5-10.8,15.9-18.6
	c1.4-4.3,2.7-8.7,2.4-13.6c-0.6-6.9-1.6-13.5-4.9-19.2c-1.9-3.4-4.1-6.5-6.6-9.5l-15.9-18c-0.3-0.9-1.3-1.2-2-2l-29.6-33.5
	c-6.9-7.7-13.5-15.8-19.5-24.1c-2.4-3.8-4.6-7.5-6.2-11.6c-1.8-4.4-3.1-8.9-3.7-13.8c-0.7-4.4-0.7-9.2-0.6-13.8
	c0.8-7.8,3-15.1,6.9-21.6c2.2-4.2,5.9-7.8,9.3-11.3c2-1.7,4.1-3,6.2-4.4c4.9-2.8,10.1-4.9,15.7-6.1c7.9-2,16.7-2.1,24.7-0.3
	c6,1.3,11.6,3.5,17,6.3c3.4,1.9,6.9,3.9,9.7,6.8c1.2,1,1.4,2.4,1.6,3.8l0.7,7.3c0.5,7.9,1.5,15.4,2,23.3c-0.1,1.2-0.8,2.5-2,2.9
	c-0.7,0-1.4-0.2-1.8-0.8c-1.2-1.8-1.4-4.1-2.1-6.1c-1.8-6.4-3.9-12.5-7.6-18v-0.3c-1.8-2.4-3.6-5-5.9-7.2c-4.3-4.6-9.3-7.6-14.5-9.9
	c-8-3.1-18.7-2.9-26.5,0.3c-5.8,2.3-11.7,7.2-14.7,13.3c-3,5.3-3.7,12.2-3.2,18.6c-0.4,0.4,0.3,0.4,0.2,0.9
	c0.6,5.8,2.9,10.8,5.6,15.7c2.3,3.8,5,7.4,7.9,11l11.9,13.4l16.1,17.8l13.5,14.9c12.2,13.4,25,26.7,30,43.6c1.8,6.6,2.9,13.8,2.5,21
	L620.4,385.4z"/>
<path d="M251.3,434.5c-0.5,1.5-2,1.6-3.3,1.7l-15.5-0.1l-22.5,0.2l-31.2-0.3l-26.9,0.2c-2.5-0.1-5,0.4-7.4-0.2
	c-0.7-0.2-1.3-0.9-1.6-1.7c-0.2-0.8-0.3-1.8,0.2-2.4c0.8-1.2,2.2-1.3,3.4-1.8c4.7-0.7,9.4-0.6,13.3-3.5c2.8-2.7,4.2-6.3,4.6-10.2
	l-0.1-62.7l-0.1-48.8l0.5-77.8c-0.4-3.8-1-7.6-4.4-9.9c-4.2-3.5-10.1-2.9-14.9-4.5c-0.7-0.6-1-1.4-1-2.3c0-0.8,0.2-1.6,0.8-2
	c0.9-0.5,1.9-0.8,3-0.8l57.4,0.3c0.5,0,0.6,0,1-0.1c1.9,0.2,4.6-0.6,5.8,1.7c0.2,0.7,0.5,1.8,0.1,2.5c-0.7,1.3-2,1.3-3.2,1.4
	c-5.8,0-11.5,0.5-16.4,3.1c-1.7,0.8-3.3,2.3-4.5,4c-0.7,1.7-1.4,3.4-1.3,5.4l-0.3,26.3l-0.6,58c-0.2,9.5,0,19.3-0.1,28.8v51.6
	l0.2,30.3c0.5,2.7-1,5.9,1.9,7.3c2.6,0.8,5.5,0.5,8.2,0.4c7.7-0.5,15.1-0.7,22.2-2.7c6.1-1.6,12-3.7,17.3-7.6
	c7.5-6.4,9.5-15.5,12.9-23.8l3.4-10.2c0.4-0.7,1-1.3,1.8-1.3c1,0.1,1.9,0.6,2.4,1.5l0.3,1.3L256,392L251.3,434.5z"/>
<path d="M123.6,257.2c-0.7,0.6-1.9,0.6-2.7,0.3c-1-0.4-1.4-1.7-1.7-2.6c-2.2-7.5-4.5-14.8-7.5-21.9c-2-4.4-4.7-9.3-9.1-11.8
	c-10-5.8-22.6-5.5-34.5-5.8c-0.6,0.2-1.6,0-1.9,0.7l-0.2,1.7l-0.5,29l-0.1,10.3l-0.6,51.1l0.1,5c0.1,0.5,0.7,0.7,1.1,0.8
	c8,0.2,16.2,0.6,23.5-1.6c5.6-2.2,8.5-8.1,10.2-13.5c1.4-4.8,2.6-9.7,4.1-14.4c0.5-0.8,1.4-1.4,2.3-1.3c0.8,0.2,1.7,0.7,2.1,1.5
	l0.3,1.3l-0.6,27.3l-0.1,10.9l0.6,27.6c-0.1,1.1-0.8,2.1-1.8,2.4c-0.8,0.3-1.7,0-2.3-0.6c-0.6-0.6-0.9-1.3-1.1-2
	c-1.8-5.5-2.6-11.3-4.7-16.6c-1.5-3.9-3.4-8.6-7.6-10.4c-3.4-1.9-7.7-1.9-11.8-2.3c-4.6-0.3-9.2-0.1-13.8,0.3
	c-0.4,0.1-0.6,0.5-0.6,0.9l-0.6,34.5v1.6l0.2,29.1l0.4,24.3c0.2,2.3,0.1,4.9,1,7c0.7,3.4,3.7,6.6,7,7.7c4.6,2.1,10,2.2,15,3.3
	c0.7,0.2,1.3,0.8,1.5,1.5c0.2,0.8,0.4,1.8-0.2,2.4c-0.6,1-1.5,1-2.4,1.2l-32.9-0.1L26.1,436c-1.9-0.1-4.2,0.3-5.3-1.7
	c-0.3-0.8-0.3-1.8,0.2-2.6c0.2-0.7,0.8-0.8,1.4-1c5-0.8,10.1-1.7,14.4-4.6c2.7-2.5,3.8-6,4.5-9.5c0.7-6.4,0.9-12.9,1.1-19.5l0.2-8.7
	l0.6-55.6l0.1-11.8l0.2-19.5l-0.1-21.7l-0.2-6.4l-0.2-27.8l-0.3-18.7c-0.5-3.7-1.1-7.6-4.4-10c-3.9-2.8-8.6-3.4-13.3-4.3
	c-0.7-0.3-1.4-1.1-1.5-1.8c-0.2-0.7,0.1-1.4,0.3-2c0.6-1,1.6-1,2.6-1.2c9.4,0.2,18.7-0.2,28.3,0.1l17.6,0.1l37.7-0.1l9.8-0.1
	c1,0.2,1.7,0.8,2.1,1.7l0.2,1l1,20.2l1.6,23.7C124.4,255.4,124.4,256.5,123.6,257.2"/>
<path d="M296.3,370.5c24.5,43.8,85.4,80.5,139.6,47.1c56.3-34.7,50.7-109.4,28.8-144.3c-34.6-55.3-91.4-75.9-139.5-47.4
	C280.2,252.5,267.5,318.9,296.3,370.5 M488.4,260c31.3,54.3,16.1,128.5-48.7,164.4c-58.7,32.5-135.4,14.6-167-40.1
	c-36.9-63.9-6.5-133.2,48.8-165.1C380.2,185.4,456.6,204.9,488.4,260"/>
</svg>
